<svg height="511pt" viewBox="-42 1 511 511.99909" width="511pt" xmlns="http://www.w3.org/2000/svg" xmlns:xlink="http://www.w3.org/1999/xlink"><linearGradient id="a" gradientTransform="matrix(.396899 0 0 -.396899 -41.975752 511.200707)" gradientUnits="userSpaceOnUse" x1="107.0174" x2="1182.9844" y1="642.9876" y2="642.9876"><stop offset="0" stop-color="#41dfd0"/><stop offset="1" stop-color="#ee83ef"/></linearGradient><path d="m427.480469 437.050781c.359375-57.125-45.589844-103.761719-102.714844-104.25l-68.265625.058594v-25.660156c-.054688-.484375-.152344-.964844-.292969-1.433594l.777344-.375c1.058594.855469 2.152344 1.707031 3.292969 2.441406 20.050781 13.382813 46.976562 9.402344 62.292968-9.207031 22.652344-1.148438 41.285157-18.246094 44.375-40.710938 24.554688-13.734374 33.328126-44.773437 19.597657-69.332031-2.972657-5.308593-6.867188-10.042969-11.507813-13.980469 15.519532-21.773437 11.550782-51.847656-9.089844-68.847656.980469-3.886718 1.476563-7.878906 1.488282-11.886718-.035156-25.679688-19.054688-47.375-44.511719-50.765626-5.496094-20.382812-23.976563-34.550781-45.089844-34.566406-5.507812.011719-10.96875 1.015625-16.121093 2.960938-7.46875-3.347656-15.90625-3.847656-23.722657-1.410156-13.1875-13.339844-34.699219-13.464844-48.039062-.273438-.09375.089844-.183594.183594-.273438.273438-7.816406-2.4375-16.253906-1.9375-23.722656 1.410156-5.152344-1.949219-10.613281-2.949219-16.121094-2.960938-21.113281.015625-39.59375 14.183594-45.089843 34.566406-25.453126 3.390626-44.476563 25.085938-44.507813 50.765626.003906 4.007812.5 8 1.476563 11.886718-20.664063 17.003906-24.632813 47.101563-9.089844 68.882813-21.457032 18.199219-24.09375 50.347656-5.890625 71.800781 3.933593 4.640625 8.667969 8.539062 13.980469 11.507812 3.089843 22.46875 21.722656 39.5625 44.371093 40.710938 15.324219 18.609375 42.25 22.585938 62.292969 9.199219 1.179688-.800781 2.332031-1.636719 3.414062-2.558594l-.222656-.273437.914063.445312c-.171875.554688-.289063 1.125-.347657 1.707031v25.890625l-67.515624-.285156h-.4375c-56.523438.132812-102.300782 45.9375-102.398438 102.460938l-.28125 76.757812h426.664062v-.855469h.386719zm-72.796875 57.039063c1.855468-5.539063 3.097656-11.261719 3.703125-17.066406h51.839843l-.085937 17.066406zm-225.835938-281.601563v-54.210937l84.984375-54.289063 85.664063 54.304688v54.195312c0 47.128907-38.203125 85.332031-85.332032 85.332031-47.128906 0-85.332031-38.203124-85.332031-85.332031zm187.734375-17.066406h8.53125c4.714844 0 8.535157 3.820313 8.535157 8.535156v8.53125c0 4.714844-3.820313 8.535157-8.535157 8.535157h-8.53125zm-175.28125 103.246094c-10.042969 0-19.410156-5.054688-24.917969-13.449219l-2.671874-4.035156-4.847657.21875c-.570312.027344-1.140625.09375-1.707031.199218-16.222656-.101562-29.425781-13.09375-29.789062-29.3125l-.066407-5.496093-5.019531-2.183594c-17.21875-7.394531-25.179688-27.347656-17.785156-44.566406 3.007812-7 8.28125-12.785157 14.976562-16.421875l10.242188-5.683594-8.535156-8.011719c-13.738282-12.699219-14.582032-34.132812-1.882813-47.875 2.0625-2.234375 4.421875-4.179687 7.003906-5.785156l5.90625-3.726563-2.5-6.539062c-6.835937-17.425781 1.753907-37.09375 19.179688-43.925781 3.863281-1.515625 7.96875-2.308594 12.121093-2.339844h8.53125l.855469-7.585937c1.613281-16.179688 16.039063-27.984376 32.214844-26.371094 3.484375.347656 6.878906 1.3125 10.023437 2.851562l4.191407 2.007813 3.964843-2.441407c5.230469-3.332031 11.890626-3.445312 17.230469-.289062l7.074219 4.027344 4.34375-6.886719c4.953125-7.941406 15.40625-10.363281 23.347656-5.410156 2.191406 1.367187 4.042969 3.21875 5.410156 5.410156l4.34375 6.886719 7.070313-4.027344c5.339844-3.15625 12-3.042969 17.230469.289062l3.96875 2.441407 4.222656-2.007813c14.585938-7.183594 32.234375-1.179687 39.417969 13.40625 1.566406 3.183594 2.546875 6.625 2.890625 10.15625l.855468 7.585938h8.582032c18.71875.160156 33.765625 15.460937 33.605468 34.179687-.035156 4.140625-.828124 8.234375-2.339843 12.085938l-2.5 6.539062 5.90625 3.726563c15.894531 9.871094 20.777343 30.757812 10.90625 46.652344-1.605469 2.585937-3.550781 4.941406-5.785157 7.007812l-8.535156 8.011719 10.242188 5.683593c16.464844 8.945313 22.558594 29.542969 13.613281 46.007813-3.636719 6.695313-9.421875 11.972656-16.421875 14.980469l-5.019531 2.183594-.109375 5.488281c-.351563 16.203125-13.53125 29.1875-29.738282 29.292969-.5625-.078126-1.136718-.144532-1.707031-.171876l-4.847656-.21875-2.667969 4.035157c-8.199218 12.46875-24.34375 16.96875-37.8125 10.546875 19.582032-13.980469 33.628906-34.398438 39.679688-57.6875h11.902344c14.140624 0 25.601562-11.460938 25.601562-25.597656v-8.535157c0-14.136719-11.460938-25.597656-25.601562-25.597656h-8.53125v-24.746094c-.042969-.289062-.105469-.574219-.179688-.855469-.054688-.578124-.167969-1.152343-.339844-1.707031-.167968-.511719-.386718-1.003906-.648437-1.476562-.246094-.457031-.53125-.894531-.855469-1.304688-.378906-.449219-.804688-.859375-1.269531-1.21875-.238281-.1875-.386719-.453125-.648438-.617187l-94.21875-59.730469c-2.792969-1.777344-6.359375-1.777344-9.15625 0l-93.515625 59.730469c-.222656.191406-.433594.394531-.628906.605468-.464844.363282-.890625.769532-1.265625 1.222657-.328125.40625-.613281.847656-.851563 1.3125-.261718.472656-.476562.964843-.640624 1.476562-.175782.554688-.289063 1.128907-.34375 1.707031-.074219.28125-.132813.566407-.175782.855469v24.746094h-8.535156c-14.136719 0-25.601562 11.460937-25.601562 25.597656v8.535157c0 14.136718 11.464843 25.597656 25.601562 25.597656h11.902344c6.003906 23.136718 19.894531 43.449218 39.28125 57.429687-4.109375 2.050781-8.636719 3.117188-13.226563 3.117188zm-29.519531-77.65625h-8.53125c-4.714844 0-8.535156-3.820313-8.535156-8.53125v-8.535157c0-4.710937 3.820312-8.53125 8.535156-8.53125h8.53125zm102.402344 93.867187c8.519531-.03125 17-1.128906 25.25-3.265625v29.71875c0 14.140625-11.464844 25.601563-25.601563 25.601563s-25.601562-11.460938-25.601562-25.601563v-29.863281c8.46875 2.25 17.191406 3.402344 25.953125 3.421875zm-136.714844 162.988282c.671875 5.523437 1.941406 10.960937 3.789062 16.210937h-63.34375v-16.210937zm22.613281 17.066406c-8.234375-16.773438-8.191406-36.425782.121094-53.164063l1.800781-3.609375c.585938-1.179687.894532-2.484375.894532-3.804687v-25.601563c0-4.710937-3.820313-8.53125-8.53125-8.53125-4.714844 0-8.535157 3.820313-8.535157 8.53125v23.585938l-.894531 1.800781c-4.152344 8.347656-6.738281 17.382813-7.640625 26.660156h-59.527344l.121094-25.457031c.027344-22.757812 9.125-44.566406 25.273437-60.601562 15.914063-15.960938 37.53125-24.910157 60.066407-24.867188h.367187l50.519532.214844v144.84375zm71.082031 0v-144.777344h.941407c4.890625 23.050781 27.542969 37.773438 50.59375 32.878906 16.582031-3.519531 29.503906-16.515625 32.929687-33.117187h.871094v145.015625zm102.402344-145.023438 51.199219-.042968c47.675781.46875 85.984375 39.429687 85.648437 87.105468l-.109374 22.980469h-51.917969c-.914063-8.886719-3.328125-17.558594-7.132813-25.640625l-.855468-1.808594.417968-23.605468c.082032-4.710938-3.671875-8.597657-8.382812-8.679688-4.714844-.082031-8.601563 3.667969-8.683594 8.382812l-.453125 25.601563c-.015625 1.316406.277344 2.617187.855469 3.804687l1.707031 3.601563c7.890625 16.882813 7.953125 36.386719.167969 53.324219h-62.460938zm-68.265625 110.890625h17.066407v17.066407h-17.066407zm0-34.132812h17.066407v17.066406h-17.066407zm-25.25-231.253907v8.53125c0 4.714844-3.824219 8.535157-8.535156 8.535157s-8.535156-3.820313-8.535156-8.535157v-8.53125c0-4.714843 3.824219-8.535156 8.535156-8.535156s8.535156 3.820313 8.535156 8.535156zm68.265625 8.53125v-8.53125c0-4.714843 3.820313-8.535156 8.53125-8.535156 4.714844 0 8.535156 3.820313 8.535156 8.535156v8.53125c0 4.714844-3.820312 8.535157-8.535156 8.535157-4.710937 0-8.53125-3.820313-8.53125-8.535157zm-25.949218.855469v8.53125c4.710937 0 8.53125 3.820313 8.53125 8.535157 0 4.710937-3.820313 8.53125-8.53125 8.53125h-8.535157c-4.710937 0-8.53125-3.820313-8.53125-8.53125v-17.066407c0-4.714843 3.820313-8.535156 8.53125-8.535156 4.714844 0 8.535157 3.820313 8.535157 8.535156zm-34.136719-34.132812c0-4.714844 3.824219-8.535157 8.535156-8.535157h34.132813c4.714843 0 8.535156 3.820313 8.535156 8.535157 0 4.710937-3.820313 8.53125-8.535156 8.53125h-34.132813c-4.710937 0-8.535156-3.820313-8.535156-8.53125zm0-34.132813c0-4.714844 3.824219-8.535156 8.535156-8.535156h34.132813c4.714843 0 8.535156 3.820312 8.535156 8.535156 0 4.710938-3.820313 8.53125-8.535156 8.53125h-34.132813c-4.710937 0-8.535156-3.820312-8.535156-8.53125zm-17.066407 102.398438v17.066406c0 4.714844-3.820312 8.535156-8.53125 8.535156-4.714843 0-8.535156-3.820312-8.535156-8.535156v-11.785156l-12.347656-6.175782c-4.230469-2.074218-5.980469-7.1875-3.90625-11.417968 2.070312-4.234375 7.183594-5.984375 11.417969-3.910156.039062.019531.078125.039062.117187.058593l17.066406 8.535157c2.890626 1.445312 4.71875 4.398437 4.71875 7.628906zm90.054688-7.628906 17.066406-8.53125c4.199219-2.140626 9.335938-.472657 11.476563 3.726562s.46875 9.339844-3.730469 11.476562c-.039062.023438-.078125.042969-.117188.0625l-12.347656 6.175782v11.785156c0 4.714844-3.820312 8.535156-8.535156 8.535156-4.710938 0-8.53125-3.820312-8.53125-8.535156v-17.066406c0-3.230469 1.828125-6.183594 4.71875-7.628906zm-26.503906 23.800781c-13.152344 6.542969-28.613282 6.542969-41.761719 0-4.234375-2.074219-5.984375-7.1875-3.910156-11.417969 2.074219-4.234375 7.183593-5.984375 11.417969-3.910156.039062.019531.078124.039062.121093.0625 8.347657 4.144531 18.152344 4.144531 26.503907 0 4.199218-2.140625 9.335937-.472656 11.476562 3.726562 2.136719 4.199219.46875 9.339844-3.730469 11.480469-.039062.019531-.078125.039063-.117187.058594zm0 0" fill="url(#a)"/></svg>